<svg xmlns="http://www.w3.org/2000/svg" xmlns:xlink="http://www.w3.org/1999/xlink" viewBox="0,0,256,256" width="50px" height="50px"><g fill="none" fill-rule="nonzero" stroke="none" stroke-width="none" stroke-linecap="none" stroke-linejoin="none" stroke-miterlimit="10" stroke-dasharray="" stroke-dashoffset="0" font-family="none" font-weight="none" font-size="none" text-anchor="none" style="mix-blend-mode: normal"><g transform="scale(4,4)"><ellipse cx="32" cy="61" rx="20.125" ry="3" fill="#ffffff" stroke="none" stroke-width="1" stroke-linecap="butt" stroke-linejoin="miter" opacity="0.3"></ellipse><path d="M48,52h-31c-2.209,0 -4,-1.791 -4,-4v-40c0,-2.209 1.791,-4 4,-4h21.311c1.06,0 2.077,0.421 2.827,1.17l9.689,9.68c0.751,0.751 1.173,1.769 1.173,2.83v30.32c0,2.209 -1.791,4 -4,4z" fill="#d4d4d4" stroke="none" stroke-width="1" stroke-linecap="butt" stroke-linejoin="miter"></path><path d="M13,8v18c2.762,0 5,-2.238 5,-5v-11.348c0,-0.42 0.264,-0.795 0.66,-0.934c1.945,-0.685 3.34,-2.538 3.34,-4.718h-5c-2.209,0 -4,1.791 -4,4z" fill="#1d2e32" stroke="none" stroke-width="1" stroke-linecap="butt" stroke-linejoin="miter" opacity="0.3"></path><path d="M52,48v-23c-2.762,0 -5,2.238 -5,5v16c0,0.552 -0.448,1 -1,1h-9c-2.762,0 -5,2.238 -5,5h16c2.209,0 4,-1.791 4,-4z" fill="#ffffff" stroke="none" stroke-width="1" stroke-linecap="butt" stroke-linejoin="miter" opacity="0.15"></path><path d="M16.5,9.5v7" fill="none" stroke="#1d2e32" stroke-width="3" stroke-linecap="round" stroke-linejoin="round"></path><path d="M50.827,14.851l-9.689,-9.68c-0.332,-0.332 -0.721,-0.587 -1.138,-0.782v7.611c0,2.209 1.791,4 4,4h7.616c-0.196,-0.421 -0.454,-0.815 -0.789,-1.149z" fill="#000000" stroke="none" stroke-width="1" stroke-linecap="butt" stroke-linejoin="miter"></path><path d="M25,24h15c1.105,0 2,-0.895 2,-2v0c0,-1.105 -0.895,-2 -2,-2h-15c-1.105,0 -2,0.895 -2,2v0c0,1.105 0.895,2 2,2z" fill="#000000" stroke="none" stroke-width="1" stroke-linecap="butt" stroke-linejoin="miter"></path><path d="M25,32h15c1.105,0 2,-0.895 2,-2v0c0,-1.105 -0.895,-2 -2,-2h-15c-1.105,0 -2,0.895 -2,2v0c0,1.105 0.895,2 2,2z" fill="#000000" stroke="none" stroke-width="1" stroke-linecap="butt" stroke-linejoin="miter"></path><path d="M25,40h15c1.105,0 2,-0.895 2,-2v0c0,-1.105 -0.895,-2 -2,-2h-15c-1.105,0 -2,0.895 -2,2v0c0,1.105 0.895,2 2,2z" fill="#000000" stroke="none" stroke-width="1" stroke-linecap="butt" stroke-linejoin="miter"></path></g></g></svg>